<?xml version="1.0" standalone="no"?><!DOCTYPE svg PUBLIC "-//W3C//DTD SVG 1.1//EN" "http://www.w3.org/Graphics/SVG/1.1/DTD/svg11.dtd"><svg t="1677166585051" class="icon" viewBox="0 0 1024 1024" version="1.1" xmlns="http://www.w3.org/2000/svg" p-id="4979" xmlns:xlink="http://www.w3.org/1999/xlink" width="200" height="200"><path d="M919.509333 301.077333a475.413333 475.413333 0 0 0-22.698666-36.010666A84.992 84.992 0 0 0 938.666667 192a85.333333 85.333333 0 0 0-85.333334-85.333333 84.949333 84.949333 0 0 0-73.066666 41.877333 464.682667 464.682667 0 0 0-36.010667-22.698667C766.698667 88.896 806.954667 64 853.333333 64a128 128 0 0 1 128 128c0 46.378667-24.917333 86.634667-61.824 109.077333zM938.666667 533.333333c0 110.314667-42.218667 210.517333-110.933334 286.272l104.853334 104.853334a20.842667 20.842667 0 0 1-29.461334 29.461333L798.272 849.066667C722.517333 917.781333 622.314667 960 512 960s-210.517333-42.218667-286.250667-110.933333l-104.874666 104.853333a20.842667 20.842667 0 0 1-29.461334-29.461333L196.266667 819.605333C127.552 743.850667 85.333333 643.648 85.333333 533.333333 85.333333 297.685333 276.352 106.666667 512 106.666667s426.666667 191.018667 426.666667 426.666666zM512 149.333333C299.925333 149.333333 128 321.258667 128 533.333333s171.925333 384 384 384 384-171.925333 384-384S724.074667 149.333333 512 149.333333z m21.333333 466.304V810.666667a21.333333 21.333333 0 1 1-42.666666 0v-195.029334A85.12 85.12 0 0 1 426.666667 533.333333c0-15.978667 4.672-30.741333 12.330666-43.541333l-91.584-91.562667a20.842667 20.842667 0 0 1 29.461334-29.461333l91.584 91.562667A84.416 84.416 0 0 1 512 448a85.333333 85.333333 0 0 1 85.333333 85.333333 85.12 85.12 0 0 1-64 82.304zM512 490.666667a42.666667 42.666667 0 1 0 0.021333 85.354666A42.666667 42.666667 0 0 0 512 490.666667zM170.666667 106.666667a85.333333 85.333333 0 0 0-85.333334 85.333333c0 31.189333 16.917333 58.176 41.877334 73.066667a468.778667 468.778667 0 0 0-22.698667 36.010666C67.584 278.634667 42.666667 238.378667 42.666667 192a128 128 0 0 1 128-128c46.378667 0 86.634667 24.896 109.077333 61.845333-12.373333 7.061333-24.405333 14.570667-36.010667 22.698667A84.992 84.992 0 0 0 170.666667 106.666667z" fill="" p-id="4980"></path></svg>