<?xml version="1.0" standalone="no"?><!DOCTYPE svg PUBLIC "-//W3C//DTD SVG 1.1//EN" "http://www.w3.org/Graphics/SVG/1.1/DTD/svg11.dtd"><svg t="1677166539436" class="icon" viewBox="0 0 1024 1024" version="1.1" xmlns="http://www.w3.org/2000/svg" p-id="4006" xmlns:xlink="http://www.w3.org/1999/xlink" width="200" height="200"><path d="M596.928 894.869333c0.021333 0.405333 0.128 0.768 0.128 1.194667C597.056 943.146667 558.976 981.333333 512 981.333333s-85.056-38.186667-85.056-85.269333c0-0.405333 0.106667-0.768 0.106667-1.194667C155.029333 887.402667 85.333333 843.093333 85.333333 789.397333c0-16.810667 7.338667-32.64 25.194667-46.805333C239.125333 599.338667 277.333333 638.997333 277.333333 426.794667c0-141.482667 5.781333-271.189333 176.170667-294.549334A63.936 63.936 0 0 1 512 42.88a63.872 63.872 0 0 1 58.496 89.365333C740.885333 155.605333 746.666667 285.312 746.666667 426.794667c0 212.842667 38.4 172.224 167.936 317.013333 16.938667 13.866667 24.064 29.248 24.064 45.589333 0 53.653333-71.530667 97.962667-341.738667 105.472zM512 938.730667a42.581333 42.581333 0 0 0 42.538667-42.624l-0.042667-0.384c-13.888 0.192-27.648 0.405333-42.496 0.405333s-28.586667-0.213333-42.496-0.405333l-0.042667 0.384c0 23.530667 19.029333 42.624 42.538667 42.624z m0-853.248c-11.754667 0-21.248 9.536-21.248 21.312s9.493333 21.333333 21.248 21.333333 21.269333-9.557333 21.269333-21.333333-9.514667-21.312-21.269333-21.312z m375.573333 691.349333s-32.469333-36.565333-85.717333-84.992C729.152 625.6 704 594.197333 704 426.794667c0-163.498667-8.917333-256-192-256s-192 92.501333-192 256c0 167.424-25.173333 198.848-97.92 265.109333-52.202667 47.552-85.034667 84.096-85.034667 84.096-9.045333 7.189333-9.045333 11.370667-9.045333 13.397333 0 2.624 4.373333 64.064 384 64.064s384-61.44 384-64.064c0-1.706667 0-5.696-8.426667-12.565333z" fill="" p-id="4007"></path></svg>