<?xml version="1.0" standalone="no"?><!DOCTYPE svg PUBLIC "-//W3C//DTD SVG 1.1//EN" "http://www.w3.org/Graphics/SVG/1.1/DTD/svg11.dtd"><svg t="1677166448762" class="icon" viewBox="0 0 1024 1024" version="1.1" xmlns="http://www.w3.org/2000/svg" p-id="2338" xmlns:xlink="http://www.w3.org/1999/xlink" width="200" height="200"><path d="M990.784 143.338667C864.128 331.648 482.624 712.533333 482.624 712.533333l-0.149333-0.149333c-0.896 0.981333-1.706667 2.005333-2.666667 2.965333-23.978667 23.936-56.512 33.621333-87.765333 29.930667 10.048 42.069333-0.554667 88.256-32.618667 121.130667 0 0-160.426667 198.378667-338.218667 73.386666 0 0 95.872-26.858667 104.213334-104.213333 0 0-12.8-77.952 57.578666-150.186667a122.453333 122.453333 0 0 1 116.16-34.048c-3.242667-30.805333 6.464-62.72 30.101334-86.336 0.938667-0.96 1.984-1.770667 2.965333-2.688l-0.149333-0.149333S713.344 181.077333 901.930667 54.592a63.808 63.808 0 0 1 82.218666 6.613333 63.573333 63.573333 0 0 1 6.634667 82.133334zM329.728 714.368c-15.829333-15.829333-36.352-24.853333-58.304-24.853333a81.258667 81.258667 0 0 0-58.538667 24.981333c-54.08 55.509333-45.973333 119.125333-45.76 121.109333-4.650667 43.093333-29.077333 79.808-54.549333 101.888 9.002667 1.642667 18.112 2.474667 27.413333 2.474667 101.333333 0 186.709333-99.413333 187.498667-100.352 0.021333 0 58.432-69.034667 2.24-125.248z m11.477333-74.197333c0 16.981333 6.165333 32.981333 18.218667 44.992 12.053333 12.032 28.757333 19.008 45.781333 19.008s32.405333-6.954667 44.074667-18.645334l33.152-33.493333 5.845333-5.973333-89.536-89.536-6.122666 5.952-33.216 32.789333c-12.032 11.989333-18.197333 27.925333-18.197334 44.906667zM954.026667 91.434667A20.778667 20.778667 0 0 0 939.242667 85.333333c-4.522667 0-8.832 1.365333-13.546667 4.736-132.650667 88.96-383.978667 327.829333-497.088 437.397334l88.725333 88.725333c109.653333-112.981333 349.098667-364.437333 438.784-497.749333a20.778667 20.778667 0 0 0-2.090666-27.008z" fill="" p-id="2339"></path></svg>