<?xml version="1.0" standalone="no"?><!DOCTYPE svg PUBLIC "-//W3C//DTD SVG 1.1//EN" "http://www.w3.org/Graphics/SVG/1.1/DTD/svg11.dtd"><svg t="1677166527095" class="icon" viewBox="0 0 1024 1024" version="1.1" xmlns="http://www.w3.org/2000/svg" p-id="3728" xmlns:xlink="http://www.w3.org/1999/xlink" width="200" height="200"><path d="M917.333333 917.333333H106.666667a85.333333 85.333333 0 0 1-85.333334-85.333333V192a85.333333 85.333333 0 0 1 85.333334-85.333333h810.666666a85.333333 85.333333 0 0 1 85.333334 85.333333v640a85.333333 85.333333 0 0 1-85.333334 85.333333z m42.666667-725.333333a42.666667 42.666667 0 0 0-42.666667-42.666667H106.666667a42.666667 42.666667 0 0 0-42.666667 42.666667v128h896V192z m0 170.666667H64v469.333333a42.666667 42.666667 0 0 0 42.666667 42.666667h810.666666a42.666667 42.666667 0 0 0 42.666667-42.666667V362.666667z m-85.333333 298.666666h-42.666667a21.333333 21.333333 0 0 1-21.333333-21.333333v-42.666667a21.333333 21.333333 0 0 1 21.333333-21.333333h42.666667a21.333333 21.333333 0 0 1 21.333333 21.333333v42.666667a21.333333 21.333333 0 0 1-21.333333 21.333333z m0-149.333333h-42.666667a21.333333 21.333333 0 0 1-21.333333-21.333333v-42.666667a21.333333 21.333333 0 0 1 21.333333-21.333333h42.666667a21.333333 21.333333 0 0 1 21.333333 21.333333v42.666667a21.333333 21.333333 0 0 1-21.333333 21.333333z m-170.666667 149.333333h-42.666667a21.333333 21.333333 0 0 1-21.333333-21.333333v-42.666667a21.333333 21.333333 0 0 1 21.333333-21.333333h42.666667a21.333333 21.333333 0 0 1 21.333333 21.333333v42.666667a21.333333 21.333333 0 0 1-21.333333 21.333333z m0-149.333333h-42.666667a21.333333 21.333333 0 0 1-21.333333-21.333333v-42.666667a21.333333 21.333333 0 0 1 21.333333-21.333333h42.666667a21.333333 21.333333 0 0 1 21.333333 21.333333v42.666667a21.333333 21.333333 0 0 1-21.333333 21.333333z m-170.666667 149.333333h-42.666666a21.333333 21.333333 0 0 1-21.333334-21.333333v-42.666667a21.333333 21.333333 0 0 1 21.333334-21.333333h42.666666a21.333333 21.333333 0 0 1 21.333334 21.333333v42.666667a21.333333 21.333333 0 0 1-21.333334 21.333333z m0-149.333333h-42.666666a21.333333 21.333333 0 0 1-21.333334-21.333333v-42.666667a21.333333 21.333333 0 0 1 21.333334-21.333333h42.666666a21.333333 21.333333 0 0 1 21.333334 21.333333v42.666667a21.333333 21.333333 0 0 1-21.333334 21.333333z m-170.666666 298.666667h-42.666667a21.333333 21.333333 0 0 1-21.333333-21.333334v-42.666666a21.333333 21.333333 0 0 1 21.333333-21.333334h42.666667a21.333333 21.333333 0 0 1 21.333333 21.333334v42.666666a21.333333 21.333333 0 0 1-21.333333 21.333334z m0-149.333334h-42.666667a21.333333 21.333333 0 0 1-21.333333-21.333333v-42.666667a21.333333 21.333333 0 0 1 21.333333-21.333333h42.666667a21.333333 21.333333 0 0 1 21.333333 21.333333v42.666667a21.333333 21.333333 0 0 1-21.333333 21.333333z m0-149.333333h-42.666667a21.333333 21.333333 0 0 1-21.333333-21.333333v-42.666667a21.333333 21.333333 0 0 1 21.333333-21.333333h42.666667a21.333333 21.333333 0 0 1 21.333333 21.333333v42.666667a21.333333 21.333333 0 0 1-21.333333 21.333333zM192 810.666667H149.333333a21.333333 21.333333 0 0 1-21.333333-21.333334v-42.666666a21.333333 21.333333 0 0 1 21.333333-21.333334h42.666667a21.333333 21.333333 0 0 1 21.333333 21.333334v42.666666a21.333333 21.333333 0 0 1-21.333333 21.333334z m0-149.333334H149.333333a21.333333 21.333333 0 0 1-21.333333-21.333333v-42.666667a21.333333 21.333333 0 0 1 21.333333-21.333333h42.666667a21.333333 21.333333 0 0 1 21.333333 21.333333v42.666667a21.333333 21.333333 0 0 1-21.333333 21.333333z m298.666667 64h42.666666a21.333333 21.333333 0 0 1 21.333334 21.333334v42.666666a21.333333 21.333333 0 0 1-21.333334 21.333334h-42.666666a21.333333 21.333333 0 0 1-21.333334-21.333334v-42.666666a21.333333 21.333333 0 0 1 21.333334-21.333334z" fill="" p-id="3729"></path></svg>