<?xml version="1.0" standalone="no"?><!DOCTYPE svg PUBLIC "-//W3C//DTD SVG 1.1//EN" "http://www.w3.org/Graphics/SVG/1.1/DTD/svg11.dtd"><svg t="1677166657418" class="icon" viewBox="0 0 1024 1024" version="1.1" xmlns="http://www.w3.org/2000/svg" p-id="6508" xmlns:xlink="http://www.w3.org/1999/xlink" width="200" height="200"><path d="M917.333333 874.666667H106.666667a85.333333 85.333333 0 0 1-85.333334-85.333334V320a85.333333 85.333333 0 0 1 85.333334-85.333333h21.333333a42.666667 42.666667 0 0 1 42.666667-42.666667h42.666666a42.666667 42.666667 0 0 1 42.666667 42.666667h42.666667s24-2.666667 42.666666-21.333334l42.666667-42.666666s16.661333-21.333333 42.666667-21.333334h170.666666c27.989333 0 42.666667 21.333333 42.666667 21.333334l42.666667 42.666666c18.666667 18.666667 42.666667 21.333333 42.666666 21.333334h192a85.333333 85.333333 0 0 1 85.333334 85.333333v469.333333a85.333333 85.333333 0 0 1-85.333334 85.333334z m42.666667-554.666667a42.666667 42.666667 0 0 0-42.666667-42.666667l-196.714666-0.277333c-6.506667-0.704-40.298667-5.738667-68.117334-33.557333l-45.44-45.44-2.218666-3.221334A12.885333 12.885333 0 0 0 597.333333 192h-170.666666c-3.264 0-8 3.797333-9.045334 4.928l-1.6 2.048-44.522666 44.501333c-27.84 27.84-61.632 32.853333-68.117334 33.557334l-88.554666 0.128c-0.512 0.042667-1.002667 0.170667-1.493334 0.170666H170.666667c-0.298667 0-0.554667-0.085333-0.853334-0.085333L106.666667 277.333333a42.666667 42.666667 0 0 0-42.666667 42.666667v469.333333a42.666667 42.666667 0 0 0 42.666667 42.666667h810.666666a42.666667 42.666667 0 0 0 42.666667-42.666667V320zM512 789.333333c-129.6 0-234.666667-105.066667-234.666667-234.666666s105.066667-234.666667 234.666667-234.666667 234.666667 105.066667 234.666667 234.666667-105.066667 234.666667-234.666667 234.666666z m0-426.666666c-106.048 0-192 85.952-192 192s85.952 192 192 192 192-85.952 192-192-85.952-192-192-192z m0 298.666666c-58.922667 0-106.666667-47.744-106.666667-106.666666s47.744-106.666667 106.666667-106.666667 106.666667 47.744 106.666667 106.666667-47.744 106.666667-106.666667 106.666666z m0-170.666666a64.021333 64.021333 0 0 0 0 128 64 64 0 1 0 0-128z m-298.666667-85.333334H128a21.333333 21.333333 0 0 1-21.333333-21.333333v-42.666667a21.333333 21.333333 0 0 1 21.333333-21.333333h85.333333a21.333333 21.333333 0 0 1 21.333334 21.333333v42.666667a21.333333 21.333333 0 0 1-21.333334 21.333333z" fill="" p-id="6509"></path></svg>