<?xml version="1.0" standalone="no"?><!DOCTYPE svg PUBLIC "-//W3C//DTD SVG 1.1//EN" "http://www.w3.org/Graphics/SVG/1.1/DTD/svg11.dtd"><svg t="1677166625013" class="icon" viewBox="0 0 1024 1024" version="1.1" xmlns="http://www.w3.org/2000/svg" p-id="5813" xmlns:xlink="http://www.w3.org/1999/xlink" width="200" height="200"><path d="M789.333333 1002.666667H234.666667a85.333333 85.333333 0 0 1-85.333334-85.333334V170.666667a85.333333 85.333333 0 0 1 85.333334-85.333334h64a21.333333 21.333333 0 1 1 0 42.666667h-64a42.666667 42.666667 0 0 0-42.666667 42.666667v746.666666a42.666667 42.666667 0 0 0 42.666667 42.666667h554.666666a42.666667 42.666667 0 0 0 42.666667-42.666667V170.666667a42.666667 42.666667 0 0 0-42.666667-42.666667h-64a21.333333 21.333333 0 1 1 0-42.666667h64a85.333333 85.333333 0 0 1 85.333334 85.333334v746.666666a85.333333 85.333333 0 0 1-85.333334 85.333334zM746.666667 192a21.333333 21.333333 0 0 1-21.333334 21.333333H298.666667a21.333333 21.333333 0 1 1 0-42.666666s24-2.666667 42.666666-21.333334l42.666667-42.666666s16.661333-21.333333 42.666667-21.333334h21.333333a64 64 0 0 1 128 0h21.333333c27.989333 0 42.666667 21.333333 42.666667 21.333334l42.666667 42.666666c18.666667 18.666667 42.666667 21.333333 42.666666 21.333334a21.333333 21.333333 0 0 1 21.333334 21.333333zM512 64a21.333333 21.333333 0 0 0-21.333333 21.333333h42.666666a21.333333 21.333333 0 0 0-21.333333-21.333333z m114.410667 85.333333s-14.485333-21.333333-38.762667-21.333333h-151.274667c-24.32 0-38.784 21.333333-38.784 21.333333l-19.392 21.333334h267.626667l-19.413333-21.333334z" fill="" p-id="5814"></path></svg>