<?xml version="1.0" standalone="no"?><!DOCTYPE svg PUBLIC "-//W3C//DTD SVG 1.1//EN" "http://www.w3.org/Graphics/SVG/1.1/DTD/svg11.dtd"><svg t="1677166632340" class="icon" viewBox="0 0 1024 1024" version="1.1" xmlns="http://www.w3.org/2000/svg" p-id="5952" xmlns:xlink="http://www.w3.org/1999/xlink" width="200" height="200"><path d="M917.333333 853.333333H106.666667a85.333333 85.333333 0 0 1-85.333334-85.333333V256a85.333333 85.333333 0 0 1 85.333334-85.333333h810.666666a85.333333 85.333333 0 0 1 85.333334 85.333333v512a85.333333 85.333333 0 0 1-85.333334 85.333333zM64 448h896v-85.333333H64v85.333333z m896-192a42.666667 42.666667 0 0 0-42.666667-42.666667H106.666667a42.666667 42.666667 0 0 0-42.666667 42.666667v64h896v-64z m0 234.666667H64v277.333333a42.666667 42.666667 0 0 0 42.666667 42.666667h810.666666a42.666667 42.666667 0 0 0 42.666667-42.666667V490.666667z m-405.333333 128h-85.333334a21.333333 21.333333 0 1 1 0-42.666667h85.333334a21.333333 21.333333 0 1 1 0 42.666667z m-192 0H170.666667a21.333333 21.333333 0 1 1 0-42.666667h192a21.333333 21.333333 0 1 1 0 42.666667z m-192 64h128a21.333333 21.333333 0 1 1 0 42.666666H170.666667a21.333333 21.333333 0 1 1 0-42.666666z" fill="" p-id="5953"></path></svg>