<?xml version="1.0" standalone="no"?><!DOCTYPE svg PUBLIC "-//W3C//DTD SVG 1.1//EN" "http://www.w3.org/Graphics/SVG/1.1/DTD/svg11.dtd"><svg t="1677166509043" class="icon" viewBox="0 0 1024 1024" version="1.1" xmlns="http://www.w3.org/2000/svg" p-id="3311" xmlns:xlink="http://www.w3.org/1999/xlink" width="200" height="200"><path d="M957.866667 703.381333c0 0.234667 0.128 0.405333 0.128 0.618667 0 0.106667-0.064 0.213333-0.064 0.341333 0.021333 0.106667 0.064 0.213333 0.064 0.341334a21.333333 21.333333 0 0 1-21.333334 21.333333C936.981333 725.994667 746.666667 725.333333 746.666667 725.333333a21.333333 21.333333 0 1 1 0-42.666666h169.514666c0.405333-7.125333 1.152-14.122667 1.152-21.333334 0-223.850667-181.482667-405.333333-405.333333-405.333333S106.666667 437.482667 106.666667 661.333333c0 7.210667 0.746667 14.208 1.130666 21.333334H277.333333a21.333333 21.333333 0 1 1 0 42.666666l-189.994666 0.661334a21.333333 21.333333 0 0 1-21.333334-21.333334c0-0.128 0.042667-0.234667 0.064-0.341333 0-0.128-0.064-0.234667-0.064-0.341333 0-0.234667 0.128-0.405333 0.128-0.597334A449.28 449.28 0 0 1 64 661.333333c0-247.445333 200.576-448 448-448s448 200.554667 448 448c0 14.186667-0.832 28.181333-2.133333 42.048zM373.824 450.730667a22.442667 22.442667 0 0 1 25.365333 2.837333l-1.066666-1.770667c187.178667 136.96 225.642667 199.957333 226.346666 201.130667 30.570667 50.282667 12.394667 114.581333-40.512 143.594667s-120.597333 11.797333-151.146666-38.485334c-0.746667-1.130667-38.912-64.298667-70.208-286.762666l1.088 1.749333a20.224 20.224 0 0 1 10.133333-22.293333z m97.344 286.314666c11.84 19.434667 33.898667 31.530667 57.578667 31.530667a68.906667 68.906667 0 0 0 33.109333-8.469333 63.125333 63.125333 0 0 0 30.933333-38.272 59.733333 59.733333 0 0 0-6.464-47.616c-0.362667-0.533333-33.536-50.901333-171.989333-156.757334 27.328 166.72 56.597333 219.157333 56.832 219.584z" fill="" p-id="3312"></path></svg>