<?xml version="1.0" standalone="no"?><!DOCTYPE svg PUBLIC "-//W3C//DTD SVG 1.1//EN" "http://www.w3.org/Graphics/SVG/1.1/DTD/svg11.dtd"><svg t="1677166520944" class="icon" viewBox="0 0 1024 1024" version="1.1" xmlns="http://www.w3.org/2000/svg" p-id="3589" xmlns:xlink="http://www.w3.org/1999/xlink" width="200" height="200"><path d="M512 960C264.576 960 64 759.424 64 512S264.576 64 512 64s448 200.576 448 448-200.576 448-448 448z m0-853.333333C288.149333 106.666667 106.666667 288.149333 106.666667 512s181.482667 405.333333 405.333333 405.333333 405.333333-181.482667 405.333333-405.333333S735.850667 106.666667 512 106.666667z m341.333333 426.666666h-21.333333a21.333333 21.333333 0 1 1 0-42.666666h21.333333a21.333333 21.333333 0 1 1 0 42.666666z m-128.448 175.018667a20.138667 20.138667 0 0 1-5.568 10.965333 20.778667 20.778667 0 0 1-24.085333 3.669334l1.237333 1.258666 0.170667 0.170667c-3.456-1.429333-6.528-2.773333-9.898667-4.16-110.698667-46.122667-175.210667-82.261333-210.496-105.344-28.010667-18.304-37.866667-28.437333-38.272-28.864-0.96-0.917333-53.077333-51.456-138.346666-258.666667h0l1.429333 1.429334c-0.213333-0.426667-0.256-0.896-0.426667-1.322667a20.586667 20.586667 0 0 1-0.810666-14.101333 19.882667 19.882667 0 0 1 4.885333-8.682667 20.629333 20.629333 0 0 1 23.488-3.861333c0.192 0.085333 0.426667 0.106667 0.597333 0.213333l-0.490666-0.533333-0.917334-0.896h0.021334-0.021334c207.210667 85.269333 257.749333 137.386667 258.666667 138.346666 0.96 0.917333 53.077333 51.477333 138.346667 258.666667l-0.021334-0.021333 0.021334 0.021333-0.938667-0.938667-0.490667-0.469333c0.490667 1.002667 0.682667 2.069333 1.024 3.114667a21.034667 21.034667 0 0 1 0.896 10.005333z m-169.237333-240.448c-0.448-0.448-43.008-41.109333-195.989333-108.224 67.114667 152.981333 107.84 195.562667 108.693333 196.437333 0.448 0.448 43.008 41.130667 195.989333 108.224-67.114667-153.002667-107.84-195.562667-108.693333-196.437333zM512 490.666667a21.333333 21.333333 0 1 1 0 42.666666 21.333333 21.333333 0 1 1 0-42.666666z m0-277.333334a21.333333 21.333333 0 0 1-21.333333-21.333333V170.666667a21.333333 21.333333 0 1 1 42.666666 0v21.333333a21.333333 21.333333 0 0 1-21.333333 21.333333z m0 597.333334a21.333333 21.333333 0 0 1 21.333333 21.333333v21.333333a21.333333 21.333333 0 1 1-42.666666 0v-21.333333a21.333333 21.333333 0 0 1 21.333333-21.333333zM192 533.333333H170.666667a21.333333 21.333333 0 1 1 0-42.666666h21.333333a21.333333 21.333333 0 1 1 0 42.666666z" fill="" p-id="3590"></path></svg>