<?xml version="1.0" standalone="no"?><!DOCTYPE svg PUBLIC "-//W3C//DTD SVG 1.1//EN" "http://www.w3.org/Graphics/SVG/1.1/DTD/svg11.dtd"><svg t="1677166496775" class="icon" viewBox="0 0 1024 1024" version="1.1" xmlns="http://www.w3.org/2000/svg" p-id="3033" xmlns:xlink="http://www.w3.org/1999/xlink" width="200" height="200"><path d="M789.333333 1002.666667H234.666667a85.333333 85.333333 0 0 1-85.333334-85.333334V106.666667a85.333333 85.333333 0 0 1 85.333334-85.333334h405.333333c6.826667 0 12.650667 3.434667 16.554667 8.426667l209.685333 209.685333A20.928 20.928 0 0 1 874.666667 256v661.333333a85.333333 85.333333 0 0 1-85.333334 85.333334zM661.333333 93.461333V234.666667h141.205334L661.333333 93.461333zM832 277.333333h-192a21.333333 21.333333 0 0 1-21.333333-21.333333V64H234.666667a42.666667 42.666667 0 0 0-42.666667 42.666667v810.666666a42.666667 42.666667 0 0 0 42.666667 42.666667h554.666666a42.666667 42.666667 0 0 0 42.666667-42.666667V277.333333z m-128 554.666667H320a21.333333 21.333333 0 1 1 0-42.666667h384a21.333333 21.333333 0 1 1 0 42.666667z m0-170.666667H320a21.333333 21.333333 0 1 1 0-42.666666h384a21.333333 21.333333 0 1 1 0 42.666666z m0-170.666666H320a21.333333 21.333333 0 1 1 0-42.666667h384a21.333333 21.333333 0 1 1 0 42.666667z" fill="" p-id="3034"></path></svg>