<?xml version="1.0" standalone="no"?><!DOCTYPE svg PUBLIC "-//W3C//DTD SVG 1.1//EN" "http://www.w3.org/Graphics/SVG/1.1/DTD/svg11.dtd"><svg t="1677166645282" class="icon" viewBox="0 0 1024 1024" version="1.1" xmlns="http://www.w3.org/2000/svg" p-id="6230" xmlns:xlink="http://www.w3.org/1999/xlink" width="200" height="200"><path d="M896 917.333333H128a106.666667 106.666667 0 0 1-106.666667-106.666666V320a21.333333 21.333333 0 0 1 21.333334-21.333333h64V192a85.333333 85.333333 0 0 1 85.333333-85.333333h213.333333a85.333333 85.333333 0 0 1 85.333334 85.333333v21.333333h490.666666a21.333333 21.333333 0 0 1 21.333334 21.333334v576a106.666667 106.666667 0 0 1-106.666667 106.666666zM64 341.333333v469.333334a64 64 0 0 0 64 64h683.136A105.856 105.856 0 0 1 789.333333 810.666667V341.333333H64z m896-85.333333H448V192a42.666667 42.666667 0 0 0-42.666667-42.666667H192a42.666667 42.666667 0 0 0-42.666667 42.666667v106.666667h661.333334c5.930667 0 11.285333 2.432 15.146666 6.357333 3.818667 3.861333 6.186667 9.130667 6.186667 14.976v490.666667a64 64 0 1 0 128 0V256z" fill="" p-id="6231"></path></svg>