<?xml version="1.0" standalone="no"?><!DOCTYPE svg PUBLIC "-//W3C//DTD SVG 1.1//EN" "http://www.w3.org/Graphics/SVG/1.1/DTD/svg11.dtd"><svg t="1677166650385" class="icon" viewBox="0 0 1024 1024" version="1.1" xmlns="http://www.w3.org/2000/svg" p-id="6369" xmlns:xlink="http://www.w3.org/1999/xlink" width="200" height="200"><path d="M917.333333 981.333333H106.666667a85.333333 85.333333 0 0 1-85.333334-85.333333l85.333334-512c14.464-73.429333 56.917333-85.333333 104.042666-85.333333h56.576C299.456 150.442667 396.842667 42.666667 512 42.666667s212.544 107.776 244.714667 256h56.576c47.125333 0 89.578667 11.904 104.042666 85.333333l85.333334 512a85.333333 85.333333 0 0 1-85.333334 85.333333zM512 85.333333c-92.842667 0-171.626667 89.130667-200.917333 213.333334h401.856C683.626667 174.464 604.864 85.333333 512 85.333333z m362.666667 298.666667c-6.570667-28.821333-20.416-42.666667-50.56-42.666667h-60.330667c2.624 20.821333 4.224 42.133333 4.224 64a21.333333 21.333333 0 1 1-42.666667 0c0-21.909333-1.472-43.328-4.288-64H302.954667A478.144 478.144 0 0 0 298.666667 405.333333a21.333333 21.333333 0 1 1-42.666667 0c0-21.866667 1.6-43.178667 4.202667-64H199.872c-30.122667 0-43.946667 13.845333-50.538667 42.666667L64 896a42.666667 42.666667 0 0 0 42.666667 42.666667h810.666666a42.666667 42.666667 0 0 0 42.666667-42.666667l-85.333333-512z" fill="" p-id="6370"></path></svg>