<?xml version="1.0" standalone="no"?><!DOCTYPE svg PUBLIC "-//W3C//DTD SVG 1.1//EN" "http://www.w3.org/Graphics/SVG/1.1/DTD/svg11.dtd"><svg t="1677160101104" class="icon" viewBox="0 0 1024 1024" version="1.1" xmlns="http://www.w3.org/2000/svg" p-id="1502" xmlns:xlink="http://www.w3.org/1999/xlink" width="200" height="200"><path d="M529.152 931.157333L512 938.666667l-17.152-7.509334C274.389333 796.010667 42.666667 488.384 42.666667 317.525333 43.413333 177.621333 157.952 64.042667 298.666667 64.042667c88.938667 0 167.445333 45.397333 213.333333 114.112a256.298667 256.298667 0 0 1 213.333333-114.112c140.714667 0 255.253333 113.578667 256 253.482666 0 170.858667-231.722667 478.485333-452.181333 613.632zM725.333333 106.517333a213.461333 213.461333 0 0 0-177.813333 95.146667L512 254.848l-35.52-53.205333A213.504 213.504 0 0 0 298.666667 106.517333c-116.992 0-212.714667 94.762667-213.333334 211.008 0 150.698667 218.325333 443.904 426.666667 574.229334 208.341333-130.325333 426.666667-423.509333 426.666667-574.016-0.618667-116.458667-96.341333-211.221333-213.333334-211.221334z" fill="" p-id="1503"></path></svg>