<?xml version="1.0" standalone="no"?><!DOCTYPE svg PUBLIC "-//W3C//DTD SVG 1.1//EN" "http://www.w3.org/Graphics/SVG/1.1/DTD/svg11.dtd"><svg t="1677166432173" class="icon" viewBox="0 0 1024 1024" version="1.1" xmlns="http://www.w3.org/2000/svg" p-id="2197" xmlns:xlink="http://www.w3.org/1999/xlink" width="200" height="200"><path d="M953.92 505.834667a20.8 20.8 0 0 1-29.461333 0l-190.698667-190.677334a21.738667 21.738667 0 0 1-3.626667-3.648l-81.706666-81.685333a21.738667 21.738667 0 0 1-3.626667-3.648L512 93.376 99.562667 505.834667a20.8 20.8 0 1 1-29.461334-29.461334L494.741333 51.733333c0.661333-1.002667 1.130667-2.154667 2.005334-3.072A20.8 20.8 0 0 1 512 42.666667a20.693333 20.693333 0 0 1 15.253333 5.994666c0.917333 0.896 1.322667 2.048 2.048 3.072L640 162.474667V106.602667a21.333333 21.333333 0 0 1 21.333333-21.333334h85.333334c5.909333 0 11.242667 2.389333 15.082666 6.250667a21.184 21.184 0 0 1 6.250667 15.082667v183.872l185.92 185.898666c8.128 8.128 8.128 21.333333 0 29.461334zM725.333333 127.936h-42.666666v77.205333l42.666666 42.666667V127.936z m-512 341.333333a21.333333 21.333333 0 0 1 21.333334 21.333334v405.333333a42.666667 42.666667 0 0 0 42.666666 42.666667h128v-277.333334a21.333333 21.333333 0 0 1 21.333334-21.333333h170.666666a21.333333 21.333333 0 0 1 21.333334 21.333333v277.333334h128a42.666667 42.666667 0 0 0 42.666666-42.666667v-405.333333a21.333333 21.333333 0 1 1 42.666667 0v405.333333a85.333333 85.333333 0 0 1-85.333333 85.333333H277.333333a85.333333 85.333333 0 0 1-85.333333-85.333333v-405.333333a21.333333 21.333333 0 0 1 21.333333-21.333334z m362.666667 469.312v-256h-128v256h128z" fill="" p-id="2198"></path></svg>