<?xml version="1.0" standalone="no"?><!DOCTYPE svg PUBLIC "-//W3C//DTD SVG 1.1//EN" "http://www.w3.org/Graphics/SVG/1.1/DTD/svg11.dtd"><svg t="1677166579019" class="icon" viewBox="0 0 1024 1024" version="1.1" xmlns="http://www.w3.org/2000/svg" p-id="4840" xmlns:xlink="http://www.w3.org/1999/xlink" width="200" height="200"><path d="M746.666667 1002.666667H277.333333a85.333333 85.333333 0 0 1-85.333333-85.333334V277.333333a85.333333 85.333333 0 0 1 85.333333-85.333333h149.333334V106.666667a85.333333 85.333333 0 0 1 170.666666 0v85.333333h149.333334a85.333333 85.333333 0 0 1 85.333333 85.333333v640a85.333333 85.333333 0 0 1-85.333333 85.333334zM554.666667 106.666667a42.666667 42.666667 0 0 0-85.333334 0v128a42.666667 42.666667 0 0 0 85.333334 0V106.666667z m234.666666 170.666666a42.666667 42.666667 0 0 0-42.666666-42.666666h-149.333334a85.333333 85.333333 0 0 1-170.666666 0h-149.333334a42.666667 42.666667 0 0 0-42.666666 42.666666v512h81.002666c4.928-12.565333 13.994667-33.045333 24.746667-47.786666 0.533333-0.298667 18.090667-37.098667 106.624-38.186667 0.128-0.448 0.213333-22.229333 0.469333-21.909333a155.434667 155.434667 0 0 1-22.421333-17.408c-5.44-3.328-24.768-21.952-30.976-55.104-1.856-11.562667-10.410667-66.112-10.410667-88.874667 0-67.648 26.986667-136.128 126.997334-136.128h2.581333c100.010667 0 126.997333 68.48 126.997333 136.128 0 22.762667-8.554667 77.312-10.410666 88.874667-6.208 33.152-25.514667 51.776-30.976 55.104a151.68 151.68 0 0 1-22.421334 17.408c0.277333-0.32 0.384 21.482667 0.469334 21.909333 88.554667 1.088 106.112 37.888 106.624 38.186667 10.752 14.741333 19.818667 35.221333 24.746666 47.786666H789.333333V277.333333zM533.632 671.744l-0.021333 0.085333c-0.064 0-0.362667-16.661333-0.362667-16.661333s24.874667-12.821333 43.328-29.397333c10.816-8.896 15.808-29.056 15.808-29.056 2.922667-17.664 5.077333-61.376 5.077333-78.997334 0-43.989333-22.037333-91.306667-85.482666-91.306666v-0.149334 0.149334c-63.445333 0-85.482667 47.338667-85.482667 91.306666 0 17.621333 2.197333 61.333333 5.077333 78.997334 0 0 4.992 20.16 15.808 29.056 18.453333 16.576 43.328 29.397333 43.328 29.397333s-0.298667 16.661333-0.384 16.661333v-0.085333s0.618667 24.448 0.618667 31.701333c0 29.077333-29.12 43.072-47.424 43.072h-0.064c-55.317333 2.432-68.373333 20.821333-68.48 20.992-3.370667 5.397333-8.042667 10.773333-12.352 21.824h298.773333c-4.330667-11.050667-9.002667-16.426667-12.416-21.802666-0.128-0.192-13.205333-18.56-68.501333-20.992h-0.042667c-18.304 0-47.445333-13.973333-47.445333-43.072 0-7.274667 0.64-31.722667 0.64-31.722667zM789.333333 832H234.666667v85.333333a42.666667 42.666667 0 0 0 42.666666 42.666667h469.333334a42.666667 42.666667 0 0 0 42.666666-42.666667v-85.333333z m-128 85.333333h-64a21.333333 21.333333 0 1 1 0-42.666666h64a21.333333 21.333333 0 1 1 0 42.666666z m-170.666666 0h-128a21.333333 21.333333 0 1 1 0-42.666666h128a21.333333 21.333333 0 1 1 0 42.666666z m0-810.666666h42.666666v42.666666h-42.666666V106.666667z" fill="" p-id="4841"></path></svg>