<?xml version="1.0" standalone="no"?><!DOCTYPE svg PUBLIC "-//W3C//DTD SVG 1.1//EN" "http://www.w3.org/Graphics/SVG/1.1/DTD/svg11.dtd"><svg t="1677166599898" class="icon" viewBox="0 0 1024 1024" version="1.1" xmlns="http://www.w3.org/2000/svg" p-id="5257" xmlns:xlink="http://www.w3.org/1999/xlink" width="200" height="200"><path d="M832 896h-128a106.666667 106.666667 0 0 1-106.666667-106.666667v-42.666666a106.666667 106.666667 0 0 1 106.666667-106.666667h192V106.666667a42.666667 42.666667 0 0 0-42.666667-42.666667c-2.282667 0-4.501333 0.32-6.677333 0.682667L455.338667 172.672l-0.042667-0.128-0.618667 0.896A42.496 42.496 0 0 0 426.666667 213.333333v682.666667a106.666667 106.666667 0 0 1-106.666667 106.666667H192a106.666667 106.666667 0 0 1-106.666667-106.666667v-42.666667a106.666667 106.666667 0 0 1 106.666667-106.666666h192V213.333333c0-37.312 24.106667-68.693333 57.450667-80.277333l-0.128-0.384L832 24l0.106667 0.256C838.890667 22.485333 845.952 21.333333 853.333333 21.333333a85.333333 85.333333 0 0 1 85.333334 85.333334v682.666666a106.666667 106.666667 0 0 1-106.666667 106.666667z m-448-42.666667v-64H192a64 64 0 0 0-64 64v42.666667a64 64 0 0 0 64 64h128a64 64 0 0 0 64-64v-42.666667z m512-106.666666v-64h-192a64 64 0 0 0-64 64v42.666666a64 64 0 0 0 64 64h128a64 64 0 0 0 64-64v-42.666666z" fill="" p-id="5258"></path></svg>