<?xml version="1.0" standalone="no"?><!DOCTYPE svg PUBLIC "-//W3C//DTD SVG 1.1//EN" "http://www.w3.org/Graphics/SVG/1.1/DTD/svg11.dtd"><svg t="1677166606655" class="icon" viewBox="0 0 1024 1024" version="1.1" xmlns="http://www.w3.org/2000/svg" p-id="5396" xmlns:xlink="http://www.w3.org/1999/xlink" width="200" height="200"><path d="M945.322667 97.024l0.021333 0.149333-148.672 41.194667-0.042667-0.128-0.618666 0.896A42.538667 42.538667 0 0 0 768 179.050667v682.666666a106.666667 106.666667 0 0 1-106.666667 106.666667h-128a106.666667 106.666667 0 0 1-106.666666-106.666667v-42.666666a106.666667 106.666667 0 0 1 106.666666-106.666667h192v-533.333333c0-37.312 24.106667-68.693333 57.450667-80.277334l-0.128-0.384 147.221333-40.661333c0.938667-0.448 2.005333-0.533333 3.029334-0.832l4.416-1.237333 0.064 0.32c0.448-0.021333 0.810667-0.256 1.28-0.256a21.333333 21.333333 0 0 1 21.333333 21.333333 21.077333 21.077333 0 0 1-14.677333 19.968zM725.333333 819.050667v-64h-192a64 64 0 0 0-64 64v42.666666a64 64 0 0 0 64 64h128a64 64 0 0 0 64-64v-42.666666z m-149.333333-192H85.333333a21.333333 21.333333 0 1 1 0-42.666667h490.666667a21.333333 21.333333 0 1 1 0 42.666667z m0-170.666667H85.333333a21.333333 21.333333 0 1 1 0-42.666667h490.666667a21.333333 21.333333 0 1 1 0 42.666667z m0-170.666667H85.333333a21.333333 21.333333 0 1 1 0-42.666666h490.666667a21.333333 21.333333 0 1 1 0 42.666666z m-490.666667 469.333334h192a21.333333 21.333333 0 1 1 0 42.666666H85.333333a21.333333 21.333333 0 1 1 0-42.666666z" fill="" p-id="5397"></path></svg>