<?xml version="1.0" standalone="no"?><!DOCTYPE svg PUBLIC "-//W3C//DTD SVG 1.1//EN" "http://www.w3.org/Graphics/SVG/1.1/DTD/svg11.dtd"><svg t="1677166638327" class="icon" viewBox="0 0 1024 1024" version="1.1" xmlns="http://www.w3.org/2000/svg" p-id="6091" xmlns:xlink="http://www.w3.org/1999/xlink" width="200" height="200"><path d="M874.666667 1002.666667H149.333333a106.666667 106.666667 0 0 1-106.666666-106.666667V42.666667a21.333333 21.333333 0 0 1 21.333333-21.333334h725.333333a21.376 21.376 0 0 1 21.333334 21.333334v298.666666h149.333333a21.333333 21.333333 0 0 1 21.333333 21.333334v533.333333a106.666667 106.666667 0 0 1-106.666666 106.666667z m-106.666667-106.666667V64H85.333333v832a64 64 0 0 0 64 64h640.469334A105.856 105.856 0 0 1 768 896z m170.666667-512h-128v512a64 64 0 1 0 128 0V384zM149.333333 853.333333a21.333333 21.333333 0 0 1 21.333334-21.333333h192a21.333333 21.333333 0 1 1 0 42.666667H170.666667a21.333333 21.333333 0 0 1-21.333334-21.333334z m99.541334-347.413333a20.842667 20.842667 0 0 1-29.461334-29.461333l125.973334-125.973334c0.682667-1.002667 1.130667-2.154667 2.026666-3.050666a20.736 20.736 0 0 1 15.253334-6.016 20.650667 20.650667 0 0 1 15.253333 6.016c0.896 0.896 1.322667 2.048 2.026667 3.050666l89.386666 89.386667 46.72-46.72c0.682667-1.002667 1.130667-2.154667 2.026667-3.050667a20.629333 20.629333 0 0 1 15.253333-5.994666 20.629333 20.629333 0 0 1 15.253334 5.994666c0.896 0.896 1.322667 2.048 2.026666 3.050667l83.306667 83.306667a20.842667 20.842667 0 0 1-29.461333 29.461333L533.333333 434.794667 498.794667 469.333333l7.125333 7.125334a20.842667 20.842667 0 0 1-29.461333 29.461333L362.666667 392.128l-113.792 113.792zM490.666667 618.666667h192a21.333333 21.333333 0 1 1 0 42.666666h-192a21.333333 21.333333 0 1 1 0-42.666666z m0 106.666666h192a21.333333 21.333333 0 1 1 0 42.666667h-192a21.333333 21.333333 0 1 1 0-42.666667z m0 106.666667h192a21.333333 21.333333 0 1 1 0 42.666667h-192a21.333333 21.333333 0 1 1 0-42.666667z m21.333333-501.333333a32 32 0 1 1-64 0 32 32 0 0 1 64 0z m64-117.333334H277.333333a21.333333 21.333333 0 1 1 0-42.666666h298.666667a21.333333 21.333333 0 1 1 0 42.666666zM170.666667 725.333333h192a21.333333 21.333333 0 1 1 0 42.666667H170.666667a21.333333 21.333333 0 1 1 0-42.666667z m213.333333-85.333333a21.333333 21.333333 0 0 1-21.333333 21.333333H170.666667a21.333333 21.333333 0 1 1 0-42.666666h192a21.333333 21.333333 0 0 1 21.333333 21.333333z" fill="" p-id="6092"></path></svg>