<?xml version="1.0" standalone="no"?><!DOCTYPE svg PUBLIC "-//W3C//DTD SVG 1.1//EN" "http://www.w3.org/Graphics/SVG/1.1/DTD/svg11.dtd"><svg t="1677166490146" class="icon" viewBox="0 0 1024 1024" version="1.1" xmlns="http://www.w3.org/2000/svg" p-id="2894" xmlns:xlink="http://www.w3.org/1999/xlink" width="200" height="200"><path d="M874.666667 981.333333a21.333333 21.333333 0 0 1-21.333334 21.333334H256a106.666667 106.666667 0 0 1-106.666667-106.666667V128a106.666667 106.666667 0 0 1 106.666667-106.666667h554.666667a21.376 21.376 0 0 1 21.333333 21.333334v149.333333h21.333333a21.333333 21.333333 0 0 1 21.333334 21.333333v768zM192 896a64 64 0 0 0 64 64h64V234.666667h-64a105.856 105.856 0 0 1-64-21.802667V896zM789.333333 192V64H256a64 64 0 0 0 0 128h533.333333z m42.666667 42.666667H362.666667v725.333333h469.333333V234.666667zM256 149.333333a21.333333 21.333333 0 1 1 0-42.666666h469.333333a21.333333 21.333333 0 1 1 0 42.666666H256z" fill="" p-id="2895"></path></svg>