<?xml version="1.0" standalone="no"?><!DOCTYPE svg PUBLIC "-//W3C//DTD SVG 1.1//EN" "http://www.w3.org/Graphics/SVG/1.1/DTD/svg11.dtd"><svg t="1677166457070" class="icon" viewBox="0 0 1024 1024" version="1.1" xmlns="http://www.w3.org/2000/svg" p-id="2477" xmlns:xlink="http://www.w3.org/1999/xlink" width="200" height="200"><path d="M1002.666667 107.2a20.8 20.8 0 0 1-5.994667 15.253333c-0.917333 0.896-2.048 1.322667-3.072 2.026667l-57.386667 57.386667 14.72 14.72c1.024 0.704 2.176 1.130667 3.072 2.026666a20.778667 20.778667 0 0 1 5.994667 15.232 20.8 20.8 0 0 1-5.994667 15.253334c-0.896 0.896-2.048 1.322667-3.072 2.026666L274.368 907.733333a21.12 21.12 0 0 1-11.157333 10.261334l-209.066667 82.005333a21.674667 21.674667 0 0 1-3.861333 1.514667l-0.256 0.106666c-0.170667 0.064-0.362667 0.021333-0.512 0.085334a19.989333 19.989333 0 0 1-12.138667 0.085333c-0.426667-0.128-0.832-0.042667-1.28-0.192-0.170667-0.064-0.277333-0.213333-0.448-0.277333a20.053333 20.053333 0 0 1-5.12-3.008c-0.832-0.597333-1.706667-1.130667-2.410667-1.834667s-1.237333-1.578667-1.834666-2.410667a20.309333 20.309333 0 0 1-3.008-5.12c-0.085333-0.170667-0.213333-0.277333-0.277334-0.448-0.149333-0.426667-0.064-0.853333-0.192-1.301333a21.013333 21.013333 0 0 1-0.874666-5.994667c0-2.133333 0.426667-4.117333 0.96-6.122666 0.085333-0.170667 0.021333-0.341333 0.085333-0.490667l0.128-0.277333c0.426667-1.344 0.832-2.624 1.493333-3.861334l82.005334-209.066666a21.226667 21.226667 0 0 1 10.282666-11.157334L709.162667 157.994667a43.84 43.84 0 0 0-41.749334-30.784c-12.992 0-24.554667 5.738667-32.597333 14.698666l-0.064-0.042666-69.333333 69.333333 0.064 0.064-145.856 145.856a20.842667 20.842667 0 0 1-29.461334-29.461333L604.544 113.301333c0.362667-0.362667 0.810667-0.469333 1.194667-0.789333a84.885333 84.885333 0 0 1 61.696-26.645333c30.933333 0 57.578667 16.725333 72.448 41.429333l53.632-53.610667c0.704-1.002667 1.130667-2.154667 2.026666-3.050666a20.629333 20.629333 0 0 1 15.253334-5.994667 20.629333 20.629333 0 0 1 15.253333 5.994667c0.896 0.896 1.322667 2.048 2.026667 3.050666l14.72 14.72 57.386666-57.386666c0.704-1.002667 1.130667-2.154667 2.026667-3.050667a20.629333 20.629333 0 0 1 15.253333-5.994667 20.629333 20.629333 0 0 1 15.253334 5.994667c0.896 0.896 1.322667 2.048 2.026666 3.050667l58.922667 58.922666c1.024 0.704 2.154667 1.130667 3.072 2.026667a20.970667 20.970667 0 0 1 5.930667 15.232zM82.666667 941.973333l136.021333-53.376-82.666667-82.666666-53.354666 136.042666zM810.752 115.328L157.546667 768.533333l98.538666 98.538667 653.205334-653.205333-98.538667-98.538667z m106.666667-42.666667l-45.205334 45.205334 34.538667 34.538666 45.205333-45.205333-34.538666-34.538667z" fill="" p-id="2478"></path></svg>