<?xml version="1.0" standalone="no"?><!DOCTYPE svg PUBLIC "-//W3C//DTD SVG 1.1//EN" "http://www.w3.org/Graphics/SVG/1.1/DTD/svg11.dtd"><svg t="1677166502872" class="icon" viewBox="0 0 1024 1024" version="1.1" xmlns="http://www.w3.org/2000/svg" p-id="3172" xmlns:xlink="http://www.w3.org/1999/xlink" width="200" height="200"><path d="M994.709333 467.093333L797.696 889.6a84.757333 84.757333 0 0 1-112.64 41.002667l-115.690667-53.952a21.12 21.12 0 0 1-14.570666-19.968 21.333333 21.333333 0 0 1 21.333333-21.333334c3.648 0 6.912 1.152 9.92 2.773334l0.192-0.362667 116.736 54.421333a42.368 42.368 0 0 0 56.32-20.501333l197.013333-422.506667a42.389333 42.389333 0 0 0-20.501333-56.32l-146.325333-68.245333s-21.994667-7.594667-21.994667-23.936a21.333333 21.333333 0 0 1 21.333333-21.333333 20.906667 20.906667 0 0 1 10.218667 2.965333l154.688 72.128a84.821333 84.821333 0 0 1 40.981333 112.661333zM618.794667 768h-512a85.333333 85.333333 0 0 1-85.333334-85.333333V170.666667a85.333333 85.333333 0 0 1 85.333334-85.333334h512a85.333333 85.333333 0 0 1 85.333333 85.333334v512a85.333333 85.333333 0 0 1-85.333333 85.333333z m-234.666667-213.333333v-21.333334l24.704-9.984c12.373333-9.941333 43.626667-39.402667 43.626667-39.402666l0.853333-4.181334c6.506667-32.234667 15.68-85.354667 15.68-102.485333 0-69.12-32.746667-99.968-106.218667-99.968s-106.218667 30.826667-106.218666 99.968c0 18.602667 9.621333 72.682667 15.68 102.421333l0.853333 5.226667c6.976 7.018667 26.453333 25.706667 43.818667 37.717333l24.554666 10.688v21.333334c-0.170667-1.728 0 42.666667 0 42.666666 0 34.496-23.573333 44.458667-55.893333 44.458667h-0.064c-72.490667 2.837333-83.776 26.730667-86.314667 29.504-2.282667 3.392-4.778667 46.528-7.232 54.037333h341.717334c-2.410667-7.488-4.8-50.410667-7.402667-54.293333-1.002667-1.194667-10.517333-26.005333-84.544-29.205333-34.005333 0-57.6-9.984-57.6-44.501334 0 0 0.384-45.674667 0-42.666666z m277.333333-384a42.666667 42.666667 0 0 0-42.666666-42.666667h-512a42.666667 42.666667 0 0 0-42.666667 42.666667v512a42.666667 42.666667 0 0 0 42.666667 42.666666h38.506666c7.445333-13.738667 11.370667-67.157333 19.008-78.634666 0 0 13.290667-43.477333 117.952-47.552 10.666667 0 16-6.677333 16-16.917334v-14.784c0-2.069333-0.341333-3.904-0.448-5.909333-9.301333-7.402667-11.498667-10.218667-27.626666-23.658667 0 0-35.712-23.381333-39.701334-49.642666 0 0-16.533333-81.066667-16.533333-110.933334 0-73.6 32.853333-142.634667 148.885333-142.634666 114.453333 0 148.885333 69.013333 148.885334 142.634666 0 29.141333-16.533333 110.933333-16.533334 110.933334-3.328 24.874667-39.701333 49.642667-39.701333 49.642666-14.464 13.418667-21.013333 19.072-29.312 24.490667-0.064 1.728-0.384 3.306667-0.384 5.077333v14.784c0 10.218667 5.333333 16.917333 16 16.917334 106.24 4.565333 119.552 47.552 119.552 47.552 7.616 11.456 11.562667 64.896 19.029333 78.634666h38.485334a42.666667 42.666667 0 0 0 42.666666-42.666666V170.666667z" fill="" p-id="3173"></path></svg>