<?xml version="1.0" standalone="no"?><!DOCTYPE svg PUBLIC "-//W3C//DTD SVG 1.1//EN" "http://www.w3.org/Graphics/SVG/1.1/DTD/svg11.dtd"><svg t="1677166484058" class="icon" viewBox="0 0 1024 1024" version="1.1" xmlns="http://www.w3.org/2000/svg" p-id="2755" xmlns:xlink="http://www.w3.org/1999/xlink" width="200" height="200"><path d="M917.333333 874.666667H106.666667a85.333333 85.333333 0 0 1-85.333334-85.333334V234.666667a85.333333 85.333333 0 0 1 85.333334-85.333334h810.666666a85.333333 85.333333 0 0 1 85.333334 85.333334v554.666666a85.333333 85.333333 0 0 1-85.333334 85.333334z m42.666667-640a42.666667 42.666667 0 0 0-42.666667-42.666667H106.666667a42.666667 42.666667 0 0 0-42.666667 42.666667v554.666666a42.666667 42.666667 0 0 0 42.666667 42.666667h810.666666a42.666667 42.666667 0 0 0 42.666667-42.666667V234.666667z m-78.208 505.92L746.666667 605.461333 669.461333 682.666667l71.125334 71.125333a20.842667 20.842667 0 0 1-29.461334 29.461333L405.333333 477.461333 142.208 740.586667a20.842667 20.842667 0 0 1-29.461333-29.461334L388.053333 435.818667c0.682667-1.024 1.130667-2.154667 2.026667-3.072a20.693333 20.693333 0 0 1 15.253333-5.994667 20.693333 20.693333 0 0 1 15.253334 5.994667c0.896 0.917333 1.322667 2.048 2.026666 3.072L640 653.205333l89.386667-89.386666c0.704-1.002667 1.130667-2.154667 2.026666-3.072a20.8 20.8 0 0 1 15.253334-5.994667 20.8 20.8 0 0 1 15.253333 5.994667c0.896 0.917333 1.322667 2.069333 2.026667 3.072l147.306666 147.306666a20.842667 20.842667 0 0 1-29.461333 29.461334zM618.666667 405.333333a85.226667 85.226667 0 1 1-35.008-162.986666A84.821333 84.821333 0 0 0 576 277.333333a85.333333 85.333333 0 0 0 85.333333 85.333334c12.501333 0 24.298667-2.837333 35.008-7.658667A85.248 85.248 0 0 1 618.666667 405.333333z" fill="" p-id="2756"></path></svg>