<?xml version="1.0" standalone="no"?><!DOCTYPE svg PUBLIC "-//W3C//DTD SVG 1.1//EN" "http://www.w3.org/Graphics/SVG/1.1/DTD/svg11.dtd"><svg t="1677166545040" class="icon" viewBox="0 0 1024 1024" version="1.1" xmlns="http://www.w3.org/2000/svg" p-id="4145" xmlns:xlink="http://www.w3.org/1999/xlink" width="200" height="200"><path d="M746.666667 469.333333H277.333333C159.509333 469.333333 64 373.824 64 256S159.509333 42.666667 277.333333 42.666667h469.333334c117.802667 0 213.333333 95.509333 213.333333 213.333333s-95.530667 213.333333-213.333333 213.333333z m0-384H277.333333a170.666667 170.666667 0 0 0 0 341.333334h469.333334a170.666667 170.666667 0 0 0 0-341.333334zM277.333333 384a128 128 0 1 1 0-256 128 128 0 0 1 0 256z m0-213.333333a85.333333 85.333333 0 1 0 0 170.666666 85.333333 85.333333 0 0 0 0-170.666666z m0 384h469.333334c117.802667 0 213.333333 95.530667 213.333333 213.333333s-95.530667 213.333333-213.333333 213.333333H277.333333C159.509333 981.333333 64 885.802667 64 768s95.509333-213.333333 213.333333-213.333333z m0 384h469.333334a170.666667 170.666667 0 0 0 0-341.333334H277.333333a170.666667 170.666667 0 0 0 0 341.333334z m469.333334-298.666667a128 128 0 0 1 0 256 128 128 0 0 1 0-256z m0 213.333333a85.333333 85.333333 0 1 0 0-170.666666 85.333333 85.333333 0 0 0 0 170.666666z" fill="" p-id="4146"></path></svg>