<?xml version="1.0" standalone="no"?><!DOCTYPE svg PUBLIC "-//W3C//DTD SVG 1.1//EN" "http://www.w3.org/Graphics/SVG/1.1/DTD/svg11.dtd"><svg t="1677166515106" class="icon" viewBox="0 0 1024 1024" version="1.1" xmlns="http://www.w3.org/2000/svg" p-id="3450" xmlns:xlink="http://www.w3.org/1999/xlink" width="200" height="200"><path d="M725.333333 1002.666667H298.666667a106.666667 106.666667 0 0 1-106.666667-106.666667V512a106.666667 106.666667 0 0 1 106.666667-106.666667h85.333333a21.333333 21.333333 0 1 1 0 42.666667h-85.333333c-35.328 0-64 28.672-64 64v384a64 64 0 0 0 64 64h426.666666a64 64 0 0 0 64-64V512a64 64 0 0 0-64-64h-85.333333a21.333333 21.333333 0 1 1 0-42.666667h85.333333a106.666667 106.666667 0 0 1 106.666667 106.666667v384a106.666667 106.666667 0 0 1-106.666667 106.666667z m-56.874666-774.08L533.333333 93.461333V640a21.333333 21.333333 0 1 1-42.666666 0V93.461333l-135.125334 135.125334a20.842667 20.842667 0 0 1-29.461333-29.461334l168.64-168.64c0.682667-1.002667 1.130667-2.154667 2.026667-3.072a20.757333 20.757333 0 0 1 15.04-6.037333L512 21.333333l0.213333 0.042667a20.757333 20.757333 0 0 1 15.04 6.037333c0.874667 0.896 1.28 2.005333 1.941334 2.986667l168.725333 168.725333a20.842667 20.842667 0 0 1-29.461333 29.461334z" fill="" p-id="3451"></path></svg>