<?xml version="1.0" standalone="no"?><!DOCTYPE svg PUBLIC "-//W3C//DTD SVG 1.1//EN" "http://www.w3.org/Graphics/SVG/1.1/DTD/svg11.dtd"><svg t="1677166559481" class="icon" viewBox="0 0 1024 1024" version="1.1" xmlns="http://www.w3.org/2000/svg" p-id="4423" xmlns:xlink="http://www.w3.org/1999/xlink" width="200" height="200"><path d="M797.568 319.914667C858.56 387.904 896 477.461333 896 576c0 212.074667-171.925333 384-384 384S128 788.074667 128 576c0-190.229333 138.453333-347.712 320-378.24V106.666667h-42.666667a21.333333 21.333333 0 1 1 0-42.666667h213.333334a21.333333 21.333333 0 1 1 0 42.666667h-42.666667v90.986666a383.296 383.296 0 0 1 192.106667 92.8l49.685333-49.685333a20.842667 20.842667 0 0 1 29.461333 29.461333l-49.685333 49.685334zM533.333333 106.666667h-42.666666v86.421333c7.104-0.405333 14.122667-1.088 21.333333-1.088s14.229333 0.618667 21.333333 1.002667V106.666667z m-21.333333 128c-188.501333 0-341.333333 152.810667-341.333333 341.333333s152.832 341.333333 341.333333 341.333333c188.522667 0 341.333333-152.810667 341.333333-341.333333 0-188.501333-152.810667-341.333333-341.333333-341.333333z m0 426.666666a85.333333 85.333333 0 0 1-85.333333-85.333333c0-15.978667 4.672-30.762667 12.330666-43.541333l-112.917333-112.896a20.842667 20.842667 0 0 1 29.461333-29.461334l112.917334 112.896A84.416 84.416 0 0 1 512 490.666667a85.333333 85.333333 0 0 1 0 170.666666z m0-128a42.666667 42.666667 0 1 0 0.021333 85.354667A42.666667 42.666667 0 0 0 512 533.333333z" fill="" p-id="4424"></path></svg>