<?xml version="1.0" standalone="no"?><!DOCTYPE svg PUBLIC "-//W3C//DTD SVG 1.1//EN" "http://www.w3.org/Graphics/SVG/1.1/DTD/svg11.dtd"><svg t="1677166408431" class="icon" viewBox="0 0 1024 1024" version="1.1" xmlns="http://www.w3.org/2000/svg" p-id="1919" xmlns:xlink="http://www.w3.org/1999/xlink" width="200" height="200"><path d="M951.509333 507.2L465.194667 993.514667c-0.682667 1.024-1.130667 2.176-2.026667 3.072a20.8 20.8 0 0 1-15.253333 5.994666 20.8 20.8 0 0 1-15.253334-5.994666c-0.896-0.896-1.322667-2.048-2.026666-3.072L73.066667 635.946667c-1.024-0.682667-2.154667-1.130667-3.072-2.026667A20.8 20.8 0 0 1 64 618.666667a20.693333 20.693333 0 0 1 5.994667-15.253334c0.917333-0.896 2.048-1.322667 3.072-2.026666L559.381333 115.093333A20.906667 20.906667 0 0 1 575.914667 106.666667h86.528c2.837333-32.042667 15.914667-60.16 35.626666-78.570667l0.341334 0.384c4.181333-4.416 9.877333-7.146667 16.170666-7.146667 12.629333 0 22.869333 10.922667 22.869334 24.384 0 8-3.84 14.741333-9.408 19.178667-10.218667 9.429333-17.493333 24.298667-19.925334 41.770667h102.464c6.826667 0 12.672 3.413333 16.533334 8.426666l124.373333 124.373334a20.992 20.992 0 0 1 8.426667 16.554666V490.666667a20.906667 20.906667 0 0 1-8.405334 16.533333z m-220.757333-151.658667a22.101333 22.101333 0 0 1-16.170667 7.125334c-12.629333 0-22.826667-10.922667-22.826666-24.384 0-8 3.84-14.741333 9.408-19.2 5.290667-4.885333 9.621333-11.456 13.162666-18.837334-18.24 4.864-31.744 21.333333-31.744 41.066667a42.666667 42.666667 0 0 0 85.333334 0c0-10.090667-3.626667-19.221333-9.493334-26.538667-13.12 33.002667-27.669333 40.768-27.669333 40.768z m186.496-91.413333L802.453333 149.333333h-89.877333c3.712 9.472 9.045333 17.536 15.466667 23.466667 0.874667 0.704 1.962667 1.130667 2.709333 1.962667l0.384-0.384c22.208 20.757333 36.8 53.504 36.8 90.752 0 0.896-0.213333 1.685333-0.256 2.56 25.536 14.741333 42.922667 42.026667 42.922667 73.642666a85.333333 85.333333 0 0 1-170.666667 0 85.141333 85.141333 0 0 1 81.493333-84.949333c-1.92-18.944-9.408-35.157333-20.245333-45.184-0.874667-0.704-1.962667-1.130667-2.752-1.962667l-0.341333 0.384C682.218667 194.794667 670.506667 173.674667 664.96 149.333333h-80.917333l-469.333334 469.333334 333.205334 333.205333 469.333333-469.333333V264.128zM304.682667 582.08a20.842667 20.842667 0 0 1 29.461333 0l150.378667 150.378667a20.842667 20.842667 0 0 1-29.461334 29.461333l-150.378666-150.378667a20.842667 20.842667 0 0 1 0-29.461333z m85.333333-85.333333a20.842667 20.842667 0 0 1 29.461333 0l150.357334 150.378666a20.842667 20.842667 0 0 1-29.461334 29.461334l-150.357333-150.378667a20.842667 20.842667 0 0 1 0-29.461333z" fill="" p-id="1920"></path></svg>