<?xml version="1.0" standalone="no"?><!DOCTYPE svg PUBLIC "-//W3C//DTD SVG 1.1//EN" "http://www.w3.org/Graphics/SVG/1.1/DTD/svg11.dtd"><svg t="1677166380189" class="icon" viewBox="0 0 1024 1024" version="1.1" xmlns="http://www.w3.org/2000/svg" p-id="1780" xmlns:xlink="http://www.w3.org/1999/xlink" width="200" height="200"><path d="M1002.581333 532.970667v0.448c0 6.826667-3.413333 12.650667-8.426666 16.554666L590.122667 954.005333a20.842667 20.842667 0 0 1-29.461334-29.461333l399.253334-399.253333v-141.205334a21.354667 21.354667 0 0 1 42.666666 0v148.885334z m-580.053333 460.629333c-0.682667 1.024-1.130667 2.176-2.026667 3.072a20.8 20.8 0 0 1-15.253333 5.994667 20.8 20.8 0 0 1-15.253333-5.994667c-0.896-0.896-1.322667-2.048-2.026667-3.072L30.4 636.010667c-1.024-0.682667-2.154667-1.130667-3.072-2.026667A20.736 20.736 0 0 1 21.333333 618.752a20.693333 20.693333 0 0 1 5.994667-15.253333c0.917333-0.896 2.048-1.322667 3.072-2.026667L516.714667 115.157333a20.949333 20.949333 0 0 1 16.533333-8.426666h86.528c2.837333-32.042667 15.914667-60.16 35.626667-78.570667l0.341333 0.384a22.186667 22.186667 0 0 1 16.170667-7.146667c12.629333 0 22.869333 10.922667 22.869333 24.384 0 8-3.84 14.741333-9.408 19.178667-10.218667 9.429333-17.493333 24.298667-19.925333 41.770667h102.464c6.826667 0 12.672 3.413333 16.533333 8.426666l124.373333 124.373334a20.992 20.992 0 0 1 8.426667 16.554666v234.666667c0 6.826667-3.413333 12.650667-8.426667 16.533333L422.528 993.6z m452.053333-729.386667l-114.794666-114.794666h-89.877334c3.754667 9.472 9.045333 17.536 15.466667 23.466666 0.874667 0.704 1.962667 1.130667 2.709333 1.962667l0.384-0.384c22.208 20.757333 36.8 53.504 36.8 90.752 0 0.896-0.213333 1.685333-0.256 2.56 25.536 14.741333 42.922667 42.026667 42.922667 73.642667a85.333333 85.333333 0 0 1-170.666667 0 85.141333 85.141333 0 0 1 81.493334-84.949334c-1.92-18.944-9.408-35.157333-20.245334-45.184-0.874667-0.704-1.962667-1.130667-2.752-1.962666l-0.341333 0.384c-15.872-14.826667-27.584-35.946667-33.130667-60.288h-80.917333l-469.333333 469.333333 333.205333 333.205333 469.333333-469.333333V264.213333z m-216.085333 54.954667c5.290667-4.885333 9.621333-11.456 13.162667-18.837333-18.24 4.864-31.744 21.333333-31.744 41.066666a42.666667 42.666667 0 0 0 85.333333 0c0-10.090667-3.626667-19.221333-9.493333-26.538666-13.12 32.96-27.669333 40.725333-27.669334 40.725333a22.016 22.016 0 0 1-16.170666 7.125333c-12.629333 0-22.826667-10.922667-22.826667-24.384 0-7.957333 3.818667-14.698667 9.408-19.157333zM262.016 582.165333a20.842667 20.842667 0 0 1 29.461333 0l150.378667 150.378667a20.842667 20.842667 0 0 1-29.461333 29.461333l-150.378667-150.378666a20.842667 20.842667 0 0 1 0-29.461334z m85.333333-85.333333a20.842667 20.842667 0 0 1 29.461334 0l150.378666 150.378667a20.842667 20.842667 0 0 1-29.461333 29.461333l-150.378667-150.378667a20.842667 20.842667 0 0 1 0-29.461333z" fill="" p-id="1781"></path></svg>