<?xml version="1.0" standalone="no"?><!DOCTYPE svg PUBLIC "-//W3C//DTD SVG 1.1//EN" "http://www.w3.org/Graphics/SVG/1.1/DTD/svg11.dtd"><svg t="1677160001070" class="icon" viewBox="0 0 1024 1024" version="1.1" xmlns="http://www.w3.org/2000/svg" p-id="1363" xmlns:xlink="http://www.w3.org/1999/xlink" width="200" height="200"><path d="M960.789333 606.421333c12.629333 14.869333 20.544 33.898667 20.544 54.933334a84.906667 84.906667 0 0 1-41.877333 73.045333c12.629333 14.890667 20.544 33.92 20.544 54.954667 0 31.189333-16.917333 58.154667-41.877333 73.045333 12.629333 14.869333 20.544 33.898667 20.544 54.933333a85.333333 85.333333 0 0 1-85.333334 85.333334l-499.285333-0.042667v-0.512a116.48 116.48 0 0 1-84.8-42.154667H128c-58.922667 0-106.666667-114.624-106.666667-256s47.744-256 106.666667-256h178.922667L469.333333 213.333333V106.666667c11.541333-69.589333 64-64 64-64 47.189333 0 64 21.333333 64 21.333333 64 64 64 170.666667 64 170.666667 0 140.970667-64 213.333333-64 213.333333h320a85.333333 85.333333 0 0 1 85.333334 85.333333 85.034667 85.034667 0 0 1-41.877334 73.088zM128 490.624c-16.448 0-64 73.344-64 213.333333s47.552 213.333333 64 213.333334h118.997333c-1.194667-4.224-2.538667-8.384-3.242666-12.8-12.629333-61.269333-30.421333-161.984-30.421334-243.2 0-86.250667 46.997333-147.136 64-170.666667h0.042667H128zM917.333333 490.666667H502.634667l62.741333-70.933334c0.533333-0.618667 53.290667-63.658667 53.290667-184.938666 0-0.896-1.152-90.282667-51.498667-140.608l-2.496-2.24c-14.357333-9.024-34.112-6.698667-34.112-6.698667-11.370667 0-16.426667 14.634667-18.56 25.28v116.138667l-200.085333 288.917333-2.325334 3.242667C292.181333 542.741333 256 592.490667 256 661.290667c0 79.232 18.496 180.992 29.824 236.224a74.581333 74.581333 0 0 0 70.08 61.952L853.333333 960c23.530667 0 42.666667-19.136 42.666667-42.666667 0-12.458667-5.674667-21.738667-10.389333-27.328l-32.618667-38.421333 43.264-25.834667A42.24 42.24 0 0 0 917.333333 789.354667c0-12.458667-5.674667-21.781333-10.410666-27.370667l-32.597334-38.464 43.306667-25.792A42.154667 42.154667 0 0 0 938.666667 661.354667c0-12.458667-5.674667-21.738667-10.389334-27.328l-32.618666-38.421334 43.264-25.834666A42.24 42.24 0 0 0 960 533.354667 42.709333 42.709333 0 0 0 917.333333 490.666667zM160 874.624a32 32 0 1 1 0.021333-64.021333 32 32 0 0 1-0.021333 64.021333z" fill="" p-id="1364"></path></svg>