<?xml version="1.0" standalone="no"?><!DOCTYPE svg PUBLIC "-//W3C//DTD SVG 1.1//EN" "http://www.w3.org/Graphics/SVG/1.1/DTD/svg11.dtd"><svg t="1677159970192" class="icon" viewBox="0 0 1024 1024" version="1.1" xmlns="http://www.w3.org/2000/svg" p-id="1224" xmlns:xlink="http://www.w3.org/1999/xlink" width="200" height="200"><path d="M981.333333 383.893333c0 21.034667-7.914667 40.064-20.544 54.933334 24.96 14.912 41.877333 41.898667 41.877334 73.066666a85.333333 85.333333 0 0 1-85.333334 85.354667H597.333333s64 72.362667 64 213.333333c0 0 0 106.666667-64 170.645334 0 0-16.810667 21.333333-64 21.333333 0 0-52.458667 5.610667-64-64v-106.645333l-162.410666-234.624H128c-58.922667 0-106.666667-114.624-106.666667-256s47.744-256 106.666667-256h141.248a116.629333 116.629333 0 0 1 84.8-42.154667v-0.512L853.333333 42.581333a85.333333 85.333333 0 0 1 85.333334 85.333334c0 21.034667-7.914667 40.064-20.544 54.933333C943.082667 197.76 960 224.704 960 255.893333c0 21.034667-7.914667 40.064-20.544 54.954667A84.949333 84.949333 0 0 1 981.333333 383.893333zM128 127.957333c-16.448 0-64 73.344-64 213.333334s47.552 213.333333 64 213.333333h149.376H277.333333c-17.002667-23.530667-64-84.416-64-170.666667 0-81.216 17.792-181.930667 30.421334-243.2 0.704-4.416 2.069333-8.576 3.242666-12.8H128z m810.922667 347.52l-43.264-25.834666 32.618666-38.421334c4.714667-5.589333 10.389333-14.869333 10.389334-27.328 0-14.933333-7.872-28.544-21.034667-36.373333l-43.306667-25.792 32.597334-38.464c4.736-5.589333 10.410667-14.912 10.410666-27.370667a42.24 42.24 0 0 0-21.077333-36.394666l-43.264-25.834667 32.618667-38.421333c4.714667-5.589333 10.389333-14.869333 10.389333-27.328 0-23.530667-19.136-42.666667-42.666667-42.666667l-497.408 0.533333a74.56 74.56 0 0 0-70.08 61.952C274.496 202.965333 256 304.725333 256 383.957333c0 68.8 36.181333 118.549333 53.589333 142.442667l2.325334 3.242667L512 818.581333v116.117334c2.154667 10.645333 7.189333 25.301333 18.56 25.301333 0 0 19.754667 2.325333 34.112-6.698667l2.496-2.24c50.346667-50.325333 51.498667-139.733333 51.498667-140.629333 0-121.28-52.757333-184.32-53.290667-184.917333l-62.741333-70.933334H917.333333c23.530667 0 42.666667-19.136 42.666667-42.688 0-14.933333-7.872-28.544-21.077333-36.416zM160 234.624a32 32 0 1 1 0-64 32 32 0 0 1 0 64z" fill="" p-id="1225"></path></svg>