<?xml version="1.0" standalone="no"?><!DOCTYPE svg PUBLIC "-//W3C//DTD SVG 1.1//EN" "http://www.w3.org/Graphics/SVG/1.1/DTD/svg11.dtd"><svg t="1677166617437" class="icon" viewBox="0 0 1024 1024" version="1.1" xmlns="http://www.w3.org/2000/svg" p-id="5674" xmlns:xlink="http://www.w3.org/1999/xlink" width="200" height="200"><path d="M981.333333 789.333333H42.666667a21.333333 21.333333 0 0 1-21.333334-21.333333V170.666667a21.333333 21.333333 0 0 1 21.333334-21.333334h938.666666a21.333333 21.333333 0 0 1 21.333334 21.333334v597.333333a21.333333 21.333333 0 0 1-21.333334 21.333333zM960 192H64v554.666667h896V192z m-512 149.333333c4.565333 0 8.533333 1.749333 12.010667 4.181334l165.781333 103.936A21.12 21.12 0 0 1 640 469.333333a20.928 20.928 0 0 1-8.64 16.704l-170.112 106.261334A20.949333 20.949333 0 0 1 448 597.333333a21.333333 21.333333 0 0 1-21.333333-21.333333V362.666667a21.333333 21.333333 0 0 1 21.333333-21.333334z m-128 490.666667h384a21.333333 21.333333 0 1 1 0 42.666667H320a21.333333 21.333333 0 1 1 0-42.666667z" fill="" p-id="5675"></path></svg>