<?xml version="1.0" standalone="no"?><!DOCTYPE svg PUBLIC "-//W3C//DTD SVG 1.1//EN" "http://www.w3.org/Graphics/SVG/1.1/DTD/svg11.dtd"><svg t="1677166571118" class="icon" viewBox="0 0 1024 1024" version="1.1" xmlns="http://www.w3.org/2000/svg" p-id="4701" xmlns:xlink="http://www.w3.org/1999/xlink" width="200" height="200"><path d="M512 960C264.576 960 64 759.424 64 512S264.576 64 512 64s448 200.576 448 448-200.576 448-448 448z m248.170667-128a1029.077333 1029.077333 0 0 0-10.965334-15.829333c-5.909333-8.405333-11.818667-16.810667-17.109333-25.130667-0.256-0.384-29.482667-39.594667-134.762667-44.373333-36.629333 0-63.253333-27.477333-63.317333-65.408L533.333333 661.333333c0-2.88-0.341333 3.157333 0 0v-21.333333l21.333334-21.333333c15.594667-7.232 35.413333-19.392 51.093333-31.232l2.88-1.984c12.394667-7.872 29.717333-24.448 31.36-30.784l0.768-8.128C648.725333 505.514667 661.333333 430.890667 661.333333 405.333333c0-100.48-48.853333-149.333333-149.333333-149.333333-101.866667 0-149.333333 47.445333-149.333333 149.333333 0 26.24 12.608 100.501333 20.544 141.141334l0.746666 7.509333c1.344 6.677333 17.045333 22.485333 30.912 31.189333l2.090667 1.322667c16.810667 11.754667 36.906667 24.853333 52.373333 32.170667l21.333334 21.333333v21.333333c0.298667 2.944 0-3.114667 0 0l-0.704 19.925334c0 37.866667-26.581333 65.365333-61.504 65.365333h-0.064c-105.728 4.288-136.384 44.309333-136.426667 44.309333-5.376 8.448-11.264 16.832-17.216 25.258667-3.349333 4.778667-7.573333 10.88-10.944 15.808 68.629333 53.290667 154.56 85.333333 248.170667 85.333333s179.562667-32.042667 248.192-85.333333zM512 106.666667C288.149333 106.666667 106.666667 288.149333 106.666667 512c0 114.901333 48 218.389333 124.8 292.138667 8.149333-12.053333 16.853333-24.085333 24.533333-36.138667 0 0 35.626667-58.517333 170.666667-64 13.76 0 20.629333-9.002667 20.629333-22.741333h0.021333L447.296 661.333333c0-2.773333-0.448-5.269333-0.576-7.957333a373.269333 373.269333 0 0 1-54.165333-31.872s-51.2-31.488-51.2-66.837333c0 0-21.333333-109.141333-21.333334-149.333334 0-99.072 42.368-192 192-192 147.626667 0 192 92.928 192 192 0 39.210667-21.333333 149.333333-21.333333 149.333334 0 34.368-51.2 66.837333-51.2 66.837333a295.957333 295.957333 0 0 1-54.250667 32.981333c-0.106667 2.325333-0.490667 4.458667-0.490666 6.848l-0.021334 19.925334h0.021334c-0.042667 13.738667 6.826667 22.741333 20.586666 22.741333 137.045333 6.144 170.666667 64 170.666667 64 7.68 12.053333 16.362667 24.085333 24.512 36.138667C869.312 730.389333 917.333333 626.901333 917.333333 512c0-223.850667-181.482667-405.333333-405.333333-405.333333z" fill="" p-id="4702"></path></svg>