<?xml version="1.0" standalone="no"?><!DOCTYPE svg PUBLIC "-//W3C//DTD SVG 1.1//EN" "http://www.w3.org/Graphics/SVG/1.1/DTD/svg11.dtd"><svg t="1677166611822" class="icon" viewBox="0 0 1024 1024" version="1.1" xmlns="http://www.w3.org/2000/svg" p-id="5535" xmlns:xlink="http://www.w3.org/1999/xlink" width="200" height="200"><path d="M917.333333 896H106.666667a85.333333 85.333333 0 0 1-85.333334-85.333333V213.333333a85.333333 85.333333 0 0 1 85.333334-85.333333h810.666666a85.333333 85.333333 0 0 1 85.333334 85.333333v597.333334a85.333333 85.333333 0 0 1-85.333334 85.333333zM256 170.666667H106.666667a42.666667 42.666667 0 0 0-42.666667 42.666666v42.666667h192V170.666667z m234.666667 0h-192v85.333333h192V170.666667z m234.666666 0h-192v85.333333h192V170.666667z m234.666667 42.666666a42.666667 42.666667 0 0 0-42.666667-42.666666h-149.333333v85.333333h192v-42.666667z m0 85.333334H64v426.666666h896V298.666667z m0 469.333333h-192v85.333333h-42.666667v-85.333333h-192v85.333333h-42.666666v-85.333333h-192v85.333333h-42.666667v-85.333333H64v42.666667a42.666667 42.666667 0 0 0 42.666667 42.666666h810.666666a42.666667 42.666667 0 0 0 42.666667-42.666666v-42.666667z m-498.752-133.013333A21.056 21.056 0 0 1 448 640a21.333333 21.333333 0 0 1-21.333333-21.333333V405.333333a21.333333 21.333333 0 0 1 21.333333-21.333333c4.544 0 8.533333 1.749333 12.010667 4.181333l165.781333 103.936A21.12 21.12 0 0 1 640 512a20.928 20.928 0 0 1-8.64 16.704l-170.112 106.282667z" fill="" p-id="5536"></path></svg>