<?xml version="1.0" standalone="no"?><!DOCTYPE svg PUBLIC "-//W3C//DTD SVG 1.1//EN" "http://www.w3.org/Graphics/SVG/1.1/DTD/svg11.dtd"><svg t="1677166422253" class="icon" viewBox="0 0 1024 1024" version="1.1" xmlns="http://www.w3.org/2000/svg" p-id="2058" xmlns:xlink="http://www.w3.org/1999/xlink" width="200" height="200"><path d="M1002.666667 853.333333a106.666667 106.666667 0 0 1-106.666667 106.666667H128a106.666667 106.666667 0 0 1-106.666667-106.666667V234.666667a85.333333 85.333333 0 0 1 85.333334-85.333334h430.314666l172.778667-62.592a21.12 21.12 0 0 1 27.050667 12.565334L755.008 149.333333H832a85.333333 85.333333 0 0 1 85.333333 85.333334v42.666666a85.333333 85.333333 0 0 1 85.333334 85.333334v490.666666zM106.666667 192a42.666667 42.666667 0 0 0 0 85.333333h77.525333c0.277333-0.106667 0.448-0.341333 0.725333-0.448L419.2 192H106.666667z m620.330666 3.861333l-22.656-62.378666h-0.021333L660.565333 149.333333h0.064l-117.632 42.666667h-0.213333l-235.498667 85.333333h449.322667l-29.610667-81.472zM874.666667 234.666667a42.666667 42.666667 0 0 0-42.666667-42.666667h-61.504l31.018667 85.333333H874.666667v-42.666666z m42.666666 85.333333H106.666667c-15.616 0-30.08-4.501333-42.666667-11.84V853.333333a64 64 0 0 0 64 64h768a64 64 0 0 0 64-64v-149.333333h-85.333333a85.333333 85.333333 0 0 1 0-170.666667h85.333333v-170.666666a42.666667 42.666667 0 0 0-42.666667-42.666667z m42.666667 341.333333v-85.333333h-85.333333a42.666667 42.666667 0 0 0 0 85.333333h85.333333z m-85.333333-64h42.666666v42.666667h-42.666666v-42.666667z" fill="" p-id="2059"></path></svg>