<?xml version="1.0" standalone="no"?><!DOCTYPE svg PUBLIC "-//W3C//DTD SVG 1.1//EN" "http://www.w3.org/Graphics/SVG/1.1/DTD/svg11.dtd"><svg t="1677166564793" class="icon" viewBox="0 0 1024 1024" version="1.1" xmlns="http://www.w3.org/2000/svg" p-id="4562" xmlns:xlink="http://www.w3.org/1999/xlink" width="200" height="200"><path d="M810.666667 554.666667c-1.024 0-1.984-0.234667-3.008-0.298667A319.68 319.68 0 0 1 682.666667 767.552V917.333333a85.333333 85.333333 0 0 1-85.333334 85.333334H384a85.333333 85.333333 0 0 1-85.333333-85.333334v-149.781333C221.077333 709.162667 170.666667 616.576 170.666667 512c0-104.597333 50.410667-197.184 128-255.552V106.666667a85.333333 85.333333 0 0 1 85.333333-85.333334h213.333333a85.333333 85.333333 0 0 1 85.333334 85.333334v149.781333a319.594667 319.594667 0 0 1 124.992 213.184c1.024-0.064 1.984-0.298667 3.008-0.298667a42.666667 42.666667 0 0 1 0 85.333334zM341.333333 917.333333a42.666667 42.666667 0 0 0 42.666667 42.666667h213.333333a42.666667 42.666667 0 0 0 42.666667-42.666667v-122.410666C595.392 818.496 544.618667 832 490.666667 832s-104.725333-13.504-149.333334-37.077333V917.333333zM640 106.666667a42.666667 42.666667 0 0 0-42.666667-42.666667H384a42.666667 42.666667 0 0 0-42.666667 42.666667v122.410666C385.941333 205.482667 436.714667 192 490.666667 192s104.725333 13.482667 149.333333 37.077333V106.666667z m-149.333333 128c-153.173333 0-277.333333 124.16-277.333334 277.333333s124.16 277.333333 277.333334 277.333333 277.333333-124.16 277.333333-277.333333-124.16-277.333333-277.333333-277.333333z m21.333333 337.408V704a21.333333 21.333333 0 1 1-42.666667 0v-131.925333A63.829333 63.829333 0 0 1 426.666667 512c0-10.048 2.517333-19.413333 6.656-27.904l-64.554667-64.554667a20.842667 20.842667 0 0 1 29.461333-29.461333l64.554667 64.554667A63.445333 63.445333 0 0 1 490.666667 448a64 64 0 0 1 64 64 63.786667 63.786667 0 0 1-42.666667 60.074667zM490.666667 490.666667a21.333333 21.333333 0 1 0 0 42.666666 21.333333 21.333333 0 1 0 0-42.666666z" fill="" p-id="4563"></path></svg>